<svg xmlns="http://www.w3.org/2000/svg" xmlns:xlink="http://www.w3.org/1999/xlink" width="500" zoomAndPan="magnify" viewBox="0 0 375 374.999991" height="500" preserveAspectRatio="xMidYMid meet" version="1.0"><defs><filter x="0%" y="0%" width="100%" height="100%" id="aa6efd7af4"><feColorMatrix values="0 0 0 0 1 0 0 0 0 1 0 0 0 0 1 0 0 0 1 0" color-interpolation-filters="sRGB"/></filter><g/><mask id="b0ac4d6716"><g filter="url(#aa6efd7af4)"><rect x="-37.5" width="450" fill="#000000" y="-37.499999" height="449.999989" fill-opacity="0.5"/></g></mask><clipPath id="4d54788663"><path d="M 0 0 L 375 0 L 375 375 L 0 375 Z M 0 0 " clip-rule="nonzero"/></clipPath><clipPath id="8063a3e6e2"><rect x="0" width="375" y="0" height="375"/></clipPath></defs><rect x="-37.5" width="450" fill="#ffffff" y="-37.499999" height="449.999989" fill-opacity="1"/><rect x="-37.5" width="450" fill="#ffffff" y="-37.499999" height="449.999989" fill-opacity="1"/><g fill="#000000" fill-opacity="1"><g transform="translate(32.374217, 174.749989)"><g><path d="M 11.921875 0 L 11.921875 -157.90625 L 85.359375 -157.90625 C 95.785156 -157.90625 104.753906 -156.300781 112.265625 -153.09375 C 119.785156 -149.882812 125.550781 -145.320312 129.5625 -139.40625 C 133.570312 -133.5 135.578125 -126.425781 135.578125 -118.1875 L 135.578125 -117.96875 C 135.578125 -112.050781 134.191406 -106.628906 131.421875 -101.703125 C 128.648438 -96.785156 124.875 -92.738281 120.09375 -89.5625 C 115.320312 -86.394531 109.941406 -84.410156 103.953125 -83.609375 L 103.953125 -82.84375 C 109.359375 -82.550781 114.394531 -81.414062 119.0625 -79.4375 C 123.726562 -77.46875 127.8125 -74.804688 131.3125 -71.453125 C 134.8125 -68.097656 137.546875 -64.210938 139.515625 -59.796875 C 141.484375 -55.390625 142.46875 -50.59375 142.46875 -45.40625 L 142.46875 -45.1875 C 142.46875 -36.070312 140.222656 -28.117188 135.734375 -21.328125 C 131.253906 -14.546875 124.890625 -9.296875 116.640625 -5.578125 C 108.398438 -1.859375 98.628906 0 87.328125 0 Z M 74.734375 -129.5625 L 52.09375 -129.5625 L 52.09375 -93.015625 L 71.78125 -93.015625 C 79.8125 -93.015625 85.921875 -94.671875 90.109375 -97.984375 C 94.304688 -101.304688 96.40625 -105.921875 96.40625 -111.828125 L 96.40625 -112.0625 C 96.40625 -117.53125 94.488281 -121.8125 90.65625 -124.90625 C 86.832031 -128.007812 81.523438 -129.5625 74.734375 -129.5625 Z M 74.734375 -67.734375 L 52.09375 -67.734375 L 52.09375 -28.34375 L 75.9375 -28.34375 C 84.1875 -28.34375 90.535156 -30.019531 94.984375 -33.375 C 99.429688 -36.726562 101.65625 -41.617188 101.65625 -48.046875 L 101.65625 -48.265625 C 101.65625 -54.535156 99.375 -59.347656 94.8125 -62.703125 C 90.257812 -66.054688 83.566406 -67.734375 74.734375 -67.734375 Z M 74.734375 -67.734375 "/></g></g><g transform="translate(179.882466, 174.749989)"><g><path d="M 84.375 2.84375 C 72.550781 2.84375 61.894531 1.003906 52.40625 -2.671875 C 42.925781 -6.359375 34.847656 -11.722656 28.171875 -18.765625 C 21.503906 -25.804688 16.398438 -34.378906 12.859375 -44.484375 C 9.316406 -54.585938 7.546875 -66.09375 7.546875 -79 L 7.546875 -79.109375 C 7.546875 -92.023438 9.332031 -103.515625 12.90625 -113.578125 C 16.488281 -123.648438 21.613281 -132.207031 28.28125 -139.25 C 34.957031 -146.289062 43.019531 -151.632812 52.46875 -155.28125 C 61.914062 -158.925781 72.550781 -160.75 84.375 -160.75 C 94.65625 -160.75 104.082031 -159.195312 112.65625 -156.09375 C 121.226562 -153 128.648438 -148.660156 134.921875 -143.078125 C 141.203125 -137.492188 146.128906 -130.945312 149.703125 -123.4375 C 153.273438 -115.925781 155.242188 -107.753906 155.609375 -98.921875 L 155.609375 -97.828125 L 116.984375 -97.828125 L 116.765625 -99.46875 C 115.960938 -104.9375 114.15625 -109.769531 111.34375 -113.96875 C 108.53125 -118.164062 104.863281 -121.46875 100.34375 -123.875 C 95.820312 -126.28125 90.5 -127.484375 84.375 -127.484375 C 77.070312 -127.484375 70.722656 -125.566406 65.328125 -121.734375 C 59.929688 -117.910156 55.773438 -112.382812 52.859375 -105.15625 C 49.941406 -97.9375 48.484375 -89.289062 48.484375 -79.21875 L 48.484375 -79.109375 C 48.484375 -68.972656 49.957031 -60.253906 52.90625 -52.953125 C 55.863281 -45.660156 60.039062 -40.082031 65.4375 -36.21875 C 70.832031 -32.351562 77.179688 -30.421875 84.484375 -30.421875 C 90.316406 -30.421875 95.492188 -31.566406 100.015625 -33.859375 C 104.535156 -36.160156 108.273438 -39.445312 111.234375 -43.71875 C 114.191406 -47.988281 116.109375 -53.039062 116.984375 -58.875 L 117.203125 -60.078125 L 155.828125 -60.078125 L 155.71875 -58.875 C 155.351562 -50.039062 153.363281 -41.867188 149.75 -34.359375 C 146.144531 -26.847656 141.1875 -20.316406 134.875 -14.765625 C 128.5625 -9.222656 121.132812 -4.898438 112.59375 -1.796875 C 104.0625 1.296875 94.65625 2.84375 84.375 2.84375 Z M 84.375 2.84375 "/></g></g></g><g fill="#000000" fill-opacity="1"><g transform="translate(29.432811, 358.499976)"><g><path d="M 79.875 2.84375 C 69.59375 2.84375 60.273438 1.457031 51.921875 -1.3125 C 43.566406 -4.082031 36.414062 -8.054688 30.46875 -13.234375 C 24.53125 -18.421875 19.953125 -24.625 16.734375 -31.84375 C 13.523438 -39.0625 11.921875 -47.125 11.921875 -56.03125 L 11.921875 -157.90625 L 52.09375 -157.90625 L 52.09375 -59.859375 C 52.09375 -50.660156 54.476562 -43.453125 59.25 -38.234375 C 64.03125 -33.023438 70.941406 -30.421875 79.984375 -30.421875 C 88.960938 -30.421875 95.835938 -33.023438 100.609375 -38.234375 C 105.390625 -43.453125 107.78125 -50.660156 107.78125 -59.859375 L 107.78125 -157.90625 L 147.953125 -157.90625 L 147.953125 -56.03125 C 147.953125 -47.195312 146.363281 -39.171875 143.1875 -31.953125 C 140.007812 -24.734375 135.429688 -18.515625 129.453125 -13.296875 C 123.472656 -8.078125 116.304688 -4.082031 107.953125 -1.3125 C 99.597656 1.457031 90.238281 2.84375 79.875 2.84375 Z M 79.875 2.84375 "/></g></g></g><g fill="#000000" fill-opacity="1"><g transform="translate(183.725561, 358.499976)"><g><path d="M 3.171875 0 L 56.359375 -157.90625 L 105.484375 -157.90625 L 158.671875 0 L 116.546875 0 L 106.6875 -34.6875 L 55.15625 -34.6875 L 45.296875 0 Z M 80.546875 -123.546875 L 63.46875 -63.578125 L 98.375 -63.578125 L 81.3125 -123.546875 Z M 80.546875 -123.546875 "/></g></g></g><g mask="url(#b0ac4d6716)"><g transform="matrix(1, 0, 0, 1, 0, 0)"><g clip-path="url(#8063a3e6e2)"><g clip-path="url(#4d54788663)"><g fill="#ff5757" fill-opacity="1"><g transform="translate(-49.257542, 452.62497)"><g><path d="M 16.421875 0 L 90.871094 0 L 248.527344 -233.199219 L 205.097656 -210.207031 L 235.023438 -210.207031 L 375.164062 0 L 453.988281 0 L 260.203125 -284.292969 L 275.898438 -233.5625 L 275.898438 -262.757812 L 458.003906 -526.613281 L 383.191406 -526.613281 L 225.171875 -291.226562 L 268.597656 -314.582031 L 238.671875 -314.582031 L 97.804688 -526.613281 L 18.613281 -526.613281 L 195.976562 -266.042969 L 195.976562 -236.847656 L 211.667969 -287.574219 Z M 16.421875 0 "/></g></g></g></g></g></g></g></svg>